<svg version="1.2" xmlns="http://www.w3.org/2000/svg" viewBox="156.00000000000006 325.99999999999994 758 304.00000000000006" width="746" height="300">
	<style>
		tspan { white-space:pre } 
		.s0 { fill: #000000 } 
		.s1 { fill: none;stroke: #000000;stroke-miterlimit:10;stroke-width: 26 } 
	</style>
	<g id="Layer 1">
		<path id="razio" fill-rule="evenodd" class="s0" d="m412.85 588h-26.63v-134.1h23.91l2.29 25.29q4.59-9.04 11.51-15.3 7.39-6.4 17.04-9.59 9.99-3.59 22.26-3.59v27.99h-9.38q-8.41 0-16.07 2.24-7.26 1.96-13.05 6.92-5.57 4.53-8.79 12.78-3.09 8.16-3.09 20.42zm101.68 3.2q-16.46 0-27.37-5.6-10.85-5.64-16.25-14.91-5.24-9.56-5.24-20.61 0-13.23 6.57-22.54 7.07-9.45 19.71-14.38 13.03-5.2 31.03-5.2h34.71q0-11.77-3.42-19.3-3.39-7.98-10.39-11.72-6.67-4.09-16.98-4.09-11.94 0-20.57 5.96-8.61 5.59-10.59 16.84h-26.67q1.55-14.3 9.56-24.04 8.21-10.22 20.78-15.44 12.92-5.46 27.54-5.46 18.67 0 31.32 6.79 12.95 6.5 19.44 18.64 6.62 12.04 6.62 28.69v83.17h-23.21l-2.17-22.74q-2.7 5.47-7.08 10.22-3.85 4.71-9.32 8.26-5.39 3.44-12.52 5.59-6.85 1.87-15.5 1.87zm5.02-21.7q8.61 0 15.28-3.34 7.12-3.57 11.98-9.32 4.98-6.2 7.46-13.58 2.74-7.66 2.98-15.82v-0.7h-31.71q-11.41 0-18.68 2.93-6.92 2.62-10.12 7.73-3.07 4.66-3.07 10.97 0 6.49 2.81 11.4 3.24 4.62 9.05 7.19 5.85 2.54 14.02 2.54zm175.75 18.5h-104.04v-21.66l72.28-90.32h-71.1v-22.12h101.53v21.66l-72.53 90.32h73.86zm40.44 0h-26.63v-134.1h26.63zm-13.29-159.54q-7.64 0-12.68-4.78-4.88-4.89-4.88-12.19 0-7.34 4.88-11.78 5.04-4.8 12.68-4.8 7.47 0 12.36 4.8 5.24 4.44 5.24 11.78 0 7.3-5.24 12.19-4.89 4.78-12.36 4.78zm94.92 162.74q-18.9 0-34.09-8.52-14.93-8.98-23.71-24.77-8.53-15.9-8.53-36.88 0-21.25 8.53-36.9 8.99-15.96 23.97-24.5 15.36-8.92 34.26-8.92 19.15 0 33.92 8.92 15.29 8.54 23.71 24.5 8.88 15.57 8.88 36.88 0 21.05-8.88 36.9-8.64 15.79-23.97 24.77-14.94 8.52-34.09 8.52zm0.08-22.9q10.78 0 19.62-5.07 9.11-5.49 14.39-15.98 5.64-10.71 5.64-26.31 0-15.82-5.38-26.15-5.32-10.63-14.38-15.72-8.83-5.46-19.51-5.46-10.45 0-19.64 5.46-8.96 5.09-14.65 15.72-5.29 10.37-5.29 26.18 0 15.59 5.29 26.28 5.64 10.49 14.38 15.98 9.02 5.07 19.53 5.07z"/>
		<text id="" style="transform: matrix(1,0,0,1,266,311)" >
		</text>
		<path id="Forma 1" fill-rule="evenodd" class="s1" d="m196.43 357.39c0 0 76.78 100.97 192.15 36.34 27.29-15.29 11.44-45.07-24.33-29.86-136.23 57.93-57.21 230.78-57.21 230.78"/>
	</g>
</svg>